<?xml version="1.0" standalone="no"?>
<!DOCTYPE svg PUBLIC "-//W3C//DTD SVG 20010904//EN"
 "http://www.w3.org/TR/2001/REC-SVG-20010904/DTD/svg10.dtd">
<svg version="1.0" xmlns="http://www.w3.org/2000/svg"
 width="1000.000000pt" height="1000.000000pt" viewBox="0 0 1000.000000 1000.000000"
 preserveAspectRatio="xMidYMid meet">
<metadata>
Created by potrace 1.11, written by Peter Selinger 2001-2013
</metadata>
<g transform="translate(0.000000,1000.000000) scale(0.100000,-0.100000)"
fill="#000000" stroke="none">
<path d="M2270 5448 c0 -1809 4 -3230 9 -3253 5 -22 17 -76 26 -120 33 -149
98 -291 184 -399 148 -185 332 -284 621 -332 19 -3 796 -7 1725 -8 1589 -3
1695 -2 1780 15 318 63 579 196 785 400 50 50 139 169 171 229 13 25 27 47 30
50 3 3 20 42 38 87 27 72 40 119 77 283 9 40 17 6260 8 6260 -3 0 -58 -31
-122 -68 -121 -71 -533 -313 -777 -457 -77 -45 -162 -95 -190 -111 l-50 -29
-1475 -1 -1475 0 -140 69 c-77 38 -293 145 -480 237 -187 92 -428 211 -535
264 -107 53 -198 96 -202 96 -5 0 -8 -1446 -8 -3212z m1777 1663 c176 -45 320
-127 443 -251 143 -144 244 -352 266 -544 6 -46 5 -203 -1 -229 -2 -12 -7 -38
-9 -57 -22 -160 -134 -367 -272 -503 -188 -186 -487 -287 -752 -255 -157 19
-336 90 -457 181 -239 180 -376 457 -373 756 2 153 32 280 99 415 l32 65 51
-37 c213 -156 514 -67 607 179 32 83 33 172 3 276 -5 19 -1 22 28 26 80 9 256
-2 335 -22z m2354 6 c204 -49 387 -161 520 -320 80 -97 160 -262 189 -390 22
-97 30 -254 17 -327 -4 -19 -9 -48 -12 -65 -38 -202 -160 -403 -330 -541 -104
-86 -279 -169 -395 -188 -157 -27 -221 -27 -380 -2 -14 2 -63 16 -110 32 -194
64 -360 190 -476 361 -82 121 -123 228 -154 403 -9 47 -5 233 5 285 21 109
102 315 123 315 4 0 24 -12 43 -26 226 -169 541 -62 624 212 15 50 13 170 -4
224 -6 19 -11 36 -11 37 0 15 276 7 351 -10z m-1085 -1989 c-12 -30 -107 -231
-233 -498 -25 -52 -52 -112 -60 -132 -8 -21 -18 -38 -22 -38 -4 0 -18 24 -31
53 -13 28 -82 176 -153 327 -71 151 -133 285 -138 298 l-9 22 330 0 330 0 -14
-32z"/>
</g>
</svg>
