<svg id="svg" version="1.1" xmlns="http://www.w3.org/2000/svg" xmlns:xlink="http://www.w3.org/1999/xlink" width="400" height="400" viewBox="0, 0, 400,400"><g id="svgg"><path id="path0" d="M200.200 114.400 C 119.028 114.556,95.555 114.709,94.700 115.090 C 94.095 115.360,93.600 115.490,93.600 115.380 C 93.600 115.270,93.083 115.447,92.451 115.774 C 91.819 116.101,91.160 116.240,90.987 116.084 C 90.813 115.928,90.796 116.016,90.947 116.280 C 91.262 116.829,89.875 117.725,89.388 117.286 C 89.214 117.129,89.193 117.212,89.342 117.471 C 89.499 117.746,89.276 118.049,88.806 118.198 C 88.363 118.339,88.000 118.595,88.000 118.768 C 88.000 118.940,87.459 119.647,86.798 120.339 C 86.137 121.031,85.604 121.642,85.612 121.698 C 85.674 122.094,84.663 124.400,84.428 124.400 C 84.266 124.400,84.110 124.625,84.081 124.900 C 84.052 125.175,83.943 126.030,83.840 126.800 C 83.736 127.570,83.640 158.170,83.626 194.800 L 83.600 261.400 70.754 261.289 C 61.754 261.211,57.748 261.311,57.372 261.623 C 57.077 261.868,56.619 261.936,56.356 261.773 C 56.052 261.585,55.981 261.646,56.162 261.938 C 56.417 262.351,55.939 262.580,55.100 262.447 C 54.935 262.421,54.800 262.661,54.800 262.980 C 54.800 263.299,54.485 263.744,54.100 263.968 C 53.715 264.192,53.557 264.381,53.749 264.388 C 53.941 264.395,53.906 264.631,53.672 264.914 C 53.343 265.310,53.285 267.000,53.600 267.000 C 53.634 267.000,53.725 267.342,53.804 267.760 C 53.883 268.178,54.184 268.670,54.473 268.854 C 54.763 269.037,54.852 269.191,54.671 269.194 C 54.491 269.197,54.627 269.485,54.975 269.832 C 55.323 270.180,55.505 270.630,55.380 270.832 C 55.255 271.035,55.354 271.200,55.600 271.200 C 55.846 271.200,55.945 271.365,55.820 271.568 C 55.695 271.770,55.834 272.177,56.128 272.471 C 56.423 272.766,56.581 273.256,56.480 273.559 C 56.357 273.929,56.468 274.005,56.816 273.790 C 57.190 273.559,57.264 273.656,57.081 274.134 C 56.940 274.500,56.999 274.800,57.213 274.800 C 57.426 274.800,57.600 275.070,57.600 275.400 C 57.600 275.730,57.745 276.000,57.923 276.000 C 58.284 276.000,59.823 279.230,59.687 279.700 C 59.639 279.865,59.759 280.000,59.953 280.000 C 60.297 280.000,60.930 281.496,60.843 282.100 C 60.819 282.265,61.160 282.400,61.600 282.400 C 62.040 282.400,62.400 282.558,62.400 282.751 C 62.400 283.133,64.811 284.250,65.300 284.095 C 65.465 284.043,65.600 284.199,65.600 284.443 C 65.600 284.686,65.864 284.784,66.187 284.660 C 66.510 284.536,66.873 284.595,66.994 284.791 C 67.115 284.986,67.796 285.161,68.507 285.180 C 69.218 285.198,70.115 285.222,70.500 285.232 C 70.885 285.242,71.200 285.374,71.200 285.525 C 71.200 286.056,329.934 285.653,331.751 285.118 C 332.658 284.851,333.601 284.623,333.846 284.610 C 334.091 284.598,334.558 284.367,334.883 284.097 C 335.208 283.828,335.592 283.725,335.737 283.870 C 335.882 284.015,336.000 283.913,336.000 283.643 C 336.000 283.373,336.194 283.273,336.431 283.419 C 336.667 283.565,337.218 283.302,337.654 282.834 C 338.091 282.365,338.617 282.087,338.824 282.215 C 339.031 282.343,339.200 282.167,339.200 281.824 C 339.200 281.481,339.391 281.200,339.624 281.200 C 339.857 281.200,339.944 281.032,339.817 280.828 C 339.691 280.623,339.773 280.340,340.000 280.200 C 340.227 280.060,340.318 279.792,340.203 279.605 C 340.087 279.418,340.309 278.948,340.696 278.561 C 341.083 278.174,341.380 277.754,341.356 277.629 C 341.251 277.089,342.112 275.200,342.463 275.200 C 342.674 275.200,342.748 275.039,342.626 274.842 C 342.504 274.645,342.671 274.382,342.996 274.257 C 343.361 274.117,343.487 273.771,343.325 273.350 C 343.148 272.889,343.215 272.762,343.532 272.958 C 343.793 273.119,344.027 273.016,344.061 272.724 C 344.182 271.686,344.274 271.382,344.828 270.200 C 345.138 269.540,345.619 268.760,345.899 268.468 C 346.179 268.175,346.305 267.770,346.180 267.568 C 346.055 267.365,346.107 267.200,346.296 267.200 C 346.485 267.200,346.640 266.750,346.640 266.200 C 346.640 265.650,346.508 265.200,346.347 265.200 C 346.022 265.200,345.390 263.475,345.641 263.272 C 345.817 263.130,344.317 262.227,344.000 262.285 C 343.890 262.305,343.440 262.120,343.000 261.875 C 341.899 261.260,342.838 261.305,329.994 261.250 L 318.387 261.200 318.407 193.598 C 318.421 145.072,318.302 125.764,317.985 125.172 C 317.743 124.719,317.477 124.002,317.396 123.579 C 317.246 122.800,315.255 119.913,314.698 119.666 C 314.531 119.592,314.498 119.366,314.623 119.163 C 314.748 118.960,314.524 118.670,314.125 118.517 C 313.726 118.365,313.051 117.916,312.625 117.520 C 312.198 117.124,311.602 116.800,311.301 116.800 C 310.999 116.800,310.864 116.620,311.000 116.400 C 311.215 116.052,310.404 115.810,309.500 115.953 C 309.335 115.979,309.200 115.840,309.200 115.643 C 309.200 115.265,307.535 114.706,306.200 114.636 C 305.760 114.613,305.220 114.506,305.000 114.397 C 304.780 114.289,257.620 114.290,200.200 114.400 M297.698 197.900 L 297.595 260.400 201.200 260.400 L 104.805 260.400 104.702 197.900 L 104.600 135.400 201.200 135.400 L 297.800 135.400 297.698 197.900 " stroke="none" fill="#bc4cfc" fill-rule="evenodd"></path><path id="path1" d="M150.132 114.300 C 178.475 114.357,224.735 114.357,252.932 114.300 C 281.129 114.243,257.940 114.197,201.400 114.197 C 144.860 114.197,121.789 114.243,150.132 114.300 M90.800 116.320 C 90.250 116.693,89.440 117.335,89.000 117.748 L 88.200 118.499 89.000 118.078 C 90.231 117.432,92.603 115.597,92.178 115.621 C 91.970 115.633,91.350 115.947,90.800 116.320 M311.900 117.059 C 312.615 117.412,313.200 117.857,313.200 118.050 C 313.200 118.242,313.425 118.394,313.700 118.386 C 313.975 118.378,313.660 117.929,313.000 117.388 C 312.340 116.847,311.530 116.407,311.200 116.411 C 310.870 116.415,311.185 116.707,311.900 117.059 M86.870 119.726 C 86.391 120.235,86.000 120.788,86.000 120.954 C 86.000 121.269,86.603 120.702,87.549 119.498 C 88.343 118.489,87.889 118.640,86.870 119.726 M315.943 121.100 C 316.444 121.815,316.939 122.400,317.041 122.400 C 317.387 122.400,316.450 120.940,315.737 120.367 C 315.236 119.965,315.296 120.178,315.943 121.100 M84.837 122.865 C 84.231 124.603,84.506 124.681,85.273 122.989 C 85.619 122.225,85.762 121.600,85.590 121.600 C 85.419 121.600,85.080 122.169,84.837 122.865 M317.674 124.602 C 317.925 125.153,318.184 125.550,318.249 125.484 C 318.492 125.241,317.894 123.600,317.562 123.600 C 317.372 123.600,317.423 124.051,317.674 124.602 M318.595 194.800 C 318.595 231.430,318.642 246.415,318.700 228.100 C 318.758 209.785,318.758 179.815,318.700 161.500 C 318.642 143.185,318.595 158.170,318.595 194.800 M152.900 260.300 C 179.465 260.357,222.935 260.357,249.500 260.300 C 276.065 260.243,254.330 260.197,201.200 260.197 C 148.070 260.197,126.335 260.243,152.900 260.300 M56.300 261.720 C 55.695 261.959,55.200 262.304,55.200 262.487 C 55.200 262.671,55.740 262.541,56.400 262.200 C 57.291 261.739,58.207 260.942,57.500 261.243 C 57.445 261.266,56.905 261.481,56.300 261.720 M345.673 264.200 C 345.923 264.750,346.276 265.200,346.456 265.200 C 346.636 265.200,346.578 264.750,346.327 264.200 C 346.077 263.650,345.724 263.200,345.544 263.200 C 345.364 263.200,345.422 263.650,345.673 264.200 M344.751 270.213 C 344.393 270.976,344.225 271.600,344.377 271.600 C 344.528 271.600,344.952 270.970,345.319 270.200 C 345.687 269.430,345.855 268.806,345.694 268.813 C 345.532 268.820,345.108 269.450,344.751 270.213 M60.012 280.400 C 60.012 281.090,60.680 282.270,60.911 281.988 C 60.996 281.885,60.829 281.350,60.539 280.800 C 60.248 280.249,60.012 280.069,60.012 280.400 " stroke="none" fill="#bc44fc" fill-rule="evenodd"></path><path id="path2" d="M83.395 195.200 C 83.395 231.610,83.442 246.505,83.500 228.300 C 83.558 210.095,83.558 180.305,83.500 162.100 C 83.442 143.895,83.395 158.790,83.395 195.200 M135.900 285.900 C 171.155 285.956,228.845 285.956,264.100 285.900 C 299.355 285.844,270.510 285.798,200.000 285.798 C 129.490 285.798,100.645 285.844,135.900 285.900 " stroke="none" fill="#c04cfc" fill-rule="evenodd"></path><path id="path3" d="M83.395 195.200 C 83.395 231.610,83.442 246.505,83.500 228.300 C 83.558 210.095,83.558 180.305,83.500 162.100 C 83.442 143.895,83.395 158.790,83.395 195.200 M135.900 285.900 C 171.155 285.956,228.845 285.956,264.100 285.900 C 299.355 285.844,270.510 285.798,200.000 285.798 C 129.490 285.798,100.645 285.844,135.900 285.900 " stroke="none" fill="#c04cfc" fill-rule="evenodd"></path><path id="path4" d="M83.395 195.200 C 83.395 231.610,83.442 246.505,83.500 228.300 C 83.558 210.095,83.558 180.305,83.500 162.100 C 83.442 143.895,83.395 158.790,83.395 195.200 M135.900 285.900 C 171.155 285.956,228.845 285.956,264.100 285.900 C 299.355 285.844,270.510 285.798,200.000 285.798 C 129.490 285.798,100.645 285.844,135.900 285.900 " stroke="none" fill="#c04cfc" fill-rule="evenodd"></path></g></svg>