<svg id="svg" version="1.1" xmlns="http://www.w3.org/2000/svg" xmlns:xlink="http://www.w3.org/1999/xlink" width="400" height="345.19811954331766" viewBox="0, 0, 400,345.19811954331766"><g id="svgg"><path id="path0" d="M71.883 40.092 C 70.393 40.486,68.676 42.279,68.279 43.855 C 67.738 46.003,67.836 240.166,68.379 241.995 C 69.535 245.886,69.791 245.937,88.247 245.937 C 104.322 245.937,104.975 245.889,106.255 244.609 C 107.655 243.209,107.579 247.548,107.657 164.338 L 107.730 86.770 108.377 86.770 C 108.872 86.770,109.090 86.976,109.302 87.643 C 113.057 99.485,140.085 187.335,143.993 200.403 C 146.976 210.376,150.917 223.553,152.751 229.684 C 156.436 242.003,156.859 243.070,158.831 245.012 L 160.193 246.352 150.880 268.027 C 145.758 279.948,141.672 289.586,141.800 289.444 C 141.928 289.303,148.955 277.183,157.417 262.511 L 172.801 235.834 183.095 201.933 C 217.722 87.901,217.945 87.181,218.744 87.088 L 219.474 87.003 219.542 120.878 L 219.610 154.754 239.293 120.666 L 258.975 86.577 258.903 65.115 C 258.821 40.579,258.997 42.305,256.411 40.698 L 255.113 39.893 229.437 39.814 C 201.229 39.728,202.091 39.682,200.421 41.352 C 199.413 42.360,198.174 46.361,168.208 145.412 L 164.568 157.447 163.505 157.367 L 162.443 157.287 145.826 101.948 C 136.687 71.511,128.970 45.813,128.677 44.842 C 127.999 42.593,127.010 41.289,125.333 40.435 L 124.005 39.758 98.470 39.786 C 81.818 39.804,72.569 39.910,71.883 40.092 M308.372 62.813 C 305.333 68.085,290.556 93.686,275.534 119.705 L 248.220 167.012 248.220 225.834 C 248.220 293.829,247.974 288.764,251.359 290.431 L 252.653 291.068 306.917 291.139 C 366.087 291.217,363.325 291.288,365.061 289.636 C 366.948 287.842,366.994 287.423,366.903 272.891 C 366.814 258.710,366.822 258.771,364.922 257.103 C 363.339 255.713,364.237 255.745,327.003 255.744 C 295.348 255.742,291.915 255.701,290.929 255.306 C 288.878 254.485,289.053 261.293,289.053 182.425 L 289.053 111.500 301.536 82.426 C 308.401 66.435,313.991 53.324,313.957 53.290 C 313.924 53.257,311.410 57.542,308.372 62.813 " stroke="none" fill="#fbfbfb" fill-rule="evenodd"></path><path id="path1" d="M0.000 172.599 L 0.000 345.198 200.000 345.198 L 400.000 345.198 400.000 172.599 L 400.000 0.000 200.000 0.000 L 0.000 0.000 0.000 172.599 M125.360 40.221 C 127.144 41.175,128.054 42.519,129.048 45.668 C 129.537 47.220,137.297 73.004,146.292 102.968 L 162.648 157.446 163.556 157.366 L 164.465 157.287 181.854 99.900 C 200.226 39.269,199.550 41.301,201.681 40.251 L 202.955 39.624 228.610 39.624 C 256.820 39.624,255.446 39.544,257.388 41.298 C 259.280 43.008,259.234 42.400,259.234 65.679 L 259.234 86.398 239.472 120.633 C 228.602 139.463,219.596 154.984,219.458 155.124 C 219.303 155.282,219.208 142.433,219.208 121.343 C 219.208 87.968,219.198 87.307,218.692 87.307 C 218.297 87.307,218.049 87.700,217.630 88.986 C 216.912 91.191,189.859 180.108,180.544 210.880 C 176.541 224.103,173.082 235.328,172.857 235.822 C 172.352 236.934,141.338 290.695,140.988 291.068 C 140.686 291.389,140.251 292.415,151.256 266.817 L 160.067 246.324 158.742 245.084 C 156.631 243.110,156.293 242.129,147.085 211.283 C 130.800 156.733,109.065 87.038,108.338 87.038 L 107.723 87.038 107.723 164.223 C 107.723 247.946,107.805 243.288,106.318 244.643 C 104.865 245.967,105.307 245.932,89.053 246.023 C 70.205 246.129,70.020 246.098,68.390 242.579 L 67.831 241.370 67.757 144.124 C 67.680 42.962,67.669 44.094,68.815 42.240 C 70.522 39.478,69.814 39.540,99.127 39.585 L 124.244 39.624 125.360 40.221 M301.945 81.812 L 289.053 111.873 289.053 182.338 C 289.053 258.558,288.969 254.143,290.441 254.982 C 290.951 255.272,297.767 255.364,326.931 255.473 L 362.794 255.608 363.992 256.279 C 366.892 257.905,366.955 258.273,366.954 273.741 L 366.952 286.770 366.304 288.163 C 365.855 289.127,365.304 289.788,364.513 290.312 L 363.370 291.068 308.318 291.138 C 248.970 291.213,251.862 291.284,250.107 289.698 C 248.060 287.849,248.220 293.206,248.220 226.508 L 248.220 166.744 273.518 122.929 C 287.432 98.830,302.387 72.923,306.751 65.358 C 311.116 57.792,314.720 51.636,314.762 51.677 C 314.803 51.718,309.035 65.279,301.945 81.812 " stroke="none" fill="#040404" fill-rule="evenodd"></path><path id="path2" d="M309.805 255.675 C 319.224 255.714,334.637 255.714,344.056 255.675 C 353.475 255.636,345.769 255.604,326.931 255.604 C 308.093 255.604,300.386 255.636,309.805 255.675 " stroke="none" fill="#7c7c7c" fill-rule="evenodd"></path><path id="path3" d="M86.165 39.691 C 92.999 39.731,104.181 39.731,111.014 39.691 C 117.848 39.651,112.257 39.618,98.590 39.618 C 84.923 39.618,79.332 39.651,86.165 39.691 M216.320 39.691 C 223.079 39.731,234.140 39.731,240.900 39.691 C 247.660 39.651,242.129 39.618,228.610 39.618 C 215.091 39.618,209.560 39.651,216.320 39.691 M67.829 142.780 C 67.829 196.118,67.860 217.898,67.898 191.180 C 67.936 164.462,67.936 120.822,67.898 94.202 C 67.860 67.583,67.829 89.443,67.829 142.780 M219.338 120.618 C 219.338 139.013,219.370 146.538,219.409 137.340 C 219.448 128.143,219.448 113.093,219.409 103.895 C 219.370 94.698,219.338 102.223,219.338 120.618 " stroke="none" fill="#5c5c5c" fill-rule="evenodd"></path><path id="path4" d="M259.094 65.816 C 259.094 77.267,259.127 81.951,259.167 76.226 C 259.208 70.500,259.208 61.132,259.167 55.406 C 259.127 49.681,259.094 54.365,259.094 65.816 " stroke="none" fill="#848484" fill-rule="evenodd"></path></g></svg>