<svg id="svg" xmlns="http://www.w3.org/2000/svg" xmlns:xlink="http://www.w3.org/1999/xlink" width="400" height="400" viewBox="0, 0, 400,400" version="1.1"><g id="svgg"><path id="path3" d="M164.593 80.789 C 164.733 81.015,165.073 81.200,165.348 81.200 C 167.511 81.200,167.600 81.809,167.600 96.562 C 167.600 111.706,167.565 111.920,164.990 112.567 C 162.825 113.110,164.631 113.600,168.800 113.600 C 173.426 113.600,174.424 113.259,172.175 112.445 C 169.657 111.535,169.575 111.047,169.694 97.708 C 169.762 90.024,169.942 85.835,170.200 85.897 C 170.420 85.951,173.210 92.026,176.400 99.397 C 180.375 108.581,182.392 112.799,182.809 112.799 C 183.229 112.800,185.117 108.754,188.922 99.700 C 194.881 85.521,195.000 85.267,195.478 85.744 C 195.655 85.921,195.902 91.316,196.026 97.733 L 196.252 109.400 196.226 97.319 C 196.193 82.055,196.020 81.689,192.664 89.800 C 188.881 98.946,183.267 112.067,183.038 112.295 C 182.627 112.706,182.468 112.373,176.442 98.534 C 172.629 89.779,170.345 85.000,169.974 85.000 C 168.843 85.000,169.154 110.474,170.300 111.694 C 171.606 113.083,171.474 113.200,168.600 113.200 C 166.116 113.200,165.373 112.810,166.542 112.120 C 167.888 111.324,168.000 110.127,168.000 96.480 C 168.000 83.355,167.973 82.873,167.171 81.854 L 166.342 80.800 171.329 80.800 L 176.317 80.800 180.597 90.900 C 186.058 103.789,185.894 103.614,187.923 98.699 C 188.581 97.105,190.509 92.425,192.206 88.300 L 195.292 80.800 200.046 80.800 C 204.709 80.800,205.404 81.001,204.200 82.000 C 203.870 82.274,203.618 82.881,203.640 83.349 C 203.675 84.097,203.712 84.079,203.949 83.200 C 204.117 82.577,204.818 81.899,205.809 81.400 L 207.400 80.600 201.618 80.489 C 198.439 80.427,195.633 80.455,195.383 80.551 C 195.134 80.647,193.083 85.197,190.826 90.663 C 188.569 96.128,186.559 100.771,186.361 100.980 C 185.730 101.645,185.272 100.774,180.882 90.562 L 176.600 80.600 170.470 80.489 C 166.353 80.415,164.423 80.514,164.593 80.789 M203.378 97.000 C 203.379 104.040,203.433 106.864,203.499 103.275 C 203.566 99.686,203.566 93.926,203.499 90.475 C 203.433 87.024,203.378 89.960,203.378 97.000 M225.291 91.230 C 224.351 91.704,223.048 92.740,222.396 93.531 C 221.059 95.154,220.527 94.965,220.329 92.800 L 220.200 91.400 216.100 91.286 C 211.883 91.169,211.422 91.353,212.800 92.600 C 213.555 93.283,213.600 93.832,213.600 102.262 C 213.600 110.667,213.552 111.248,212.800 112.000 C 211.360 113.440,211.795 113.600,217.133 113.600 C 222.830 113.600,223.321 113.445,221.710 112.162 C 220.634 111.304,220.592 111.125,220.349 106.339 L 220.098 101.400 220.149 106.480 C 220.184 109.951,220.358 111.719,220.700 112.060 C 221.678 113.037,221.150 113.200,217.000 113.200 C 212.647 113.200,212.434 113.118,213.413 111.824 C 214.321 110.623,214.270 93.984,213.354 92.586 L 212.708 91.600 216.354 91.600 L 220.000 91.600 220.000 93.213 C 220.000 95.631,220.845 95.652,223.336 93.295 C 226.547 90.259,229.524 90.165,230.255 93.077 C 230.935 95.785,228.545 97.099,225.733 95.563 C 223.023 94.083,220.343 96.437,220.453 100.200 C 220.480 101.150,220.561 101.025,220.840 99.601 C 221.547 95.989,223.325 94.603,225.588 95.900 C 228.577 97.613,231.141 96.259,230.650 93.228 C 230.223 90.601,228.104 89.811,225.291 91.230 M230.369 107.569 C 227.915 110.023,229.613 114.000,233.115 114.000 C 236.200 114.000,238.016 111.138,236.631 108.460 C 235.376 106.034,232.337 105.601,230.369 107.569 M235.493 107.586 C 237.965 109.889,236.492 113.600,233.106 113.600 C 229.957 113.600,228.445 110.163,230.581 107.858 C 231.813 106.529,234.215 106.396,235.493 107.586 M195.646 110.271 C 195.595 111.229,193.864 112.796,192.846 112.806 C 192.283 112.811,192.277 112.862,192.800 113.200 C 193.514 113.662,205.981 113.727,206.696 113.273 C 207.028 113.062,206.741 112.795,205.824 112.463 C 204.948 112.146,204.314 111.579,204.060 110.884 C 203.719 109.953,203.659 109.920,203.632 110.651 C 203.614 111.119,203.870 111.726,204.200 112.000 C 205.411 113.005,204.696 113.200,199.800 113.200 C 197.050 113.200,194.800 113.104,194.800 112.986 C 194.800 112.868,195.085 112.337,195.433 111.806 C 195.781 111.274,195.982 110.515,195.880 110.120 C 195.728 109.536,195.684 109.565,195.646 110.271 M155.872 127.862 C 155.446 128.287,155.550 136.000,155.981 136.000 C 156.191 136.000,156.738 135.152,157.197 134.115 C 158.219 131.803,159.040 130.850,160.600 130.161 C 161.313 129.846,161.522 129.625,161.114 129.616 C 160.139 129.593,157.809 131.752,157.026 133.402 C 156.086 135.382,156.000 135.214,156.000 131.400 L 156.000 128.000 170.400 128.000 L 184.800 128.000 184.776 131.300 C 184.757 134.019,184.669 134.466,184.276 133.838 C 181.845 129.951,176.484 127.676,174.480 129.680 C 173.528 130.632,173.824 157.668,174.800 158.909 C 175.983 160.413,176.020 160.400,170.400 160.400 C 164.780 160.400,164.817 160.413,166.000 158.909 C 166.765 157.937,166.800 157.286,166.800 144.026 C 166.800 128.477,166.939 129.165,163.820 129.265 L 161.800 129.330 164.000 129.565 L 166.200 129.800 166.305 143.762 C 166.420 158.947,166.375 159.290,164.198 159.836 C 163.652 159.973,163.305 160.246,163.426 160.443 C 163.726 160.927,176.845 160.888,177.600 160.400 C 178.083 160.088,178.021 160.011,177.282 160.006 C 176.777 160.003,175.920 159.556,175.377 159.013 L 174.390 158.026 174.495 143.913 L 174.600 129.800 177.271 129.800 C 180.578 129.800,181.711 130.525,183.400 133.724 C 185.044 136.840,185.245 136.626,185.114 131.900 L 185.000 127.800 170.572 127.695 C 162.636 127.637,156.021 127.712,155.872 127.862 M222.400 127.842 C 222.400 127.976,222.850 128.439,223.400 128.871 C 224.395 129.654,225.044 139.604,224.100 139.598 C 223.935 139.597,222.900 139.134,221.800 138.569 C 215.802 135.485,209.600 141.165,209.600 149.741 C 209.600 158.706,216.075 163.974,222.149 159.951 C 223.186 159.264,224.081 158.769,224.136 158.851 C 224.192 158.933,224.451 159.495,224.710 160.100 C 224.989 160.749,225.474 161.181,225.891 161.154 C 226.561 161.110,226.561 161.097,225.883 160.921 C 225.483 160.817,225.064 160.220,224.933 159.567 C 224.672 158.261,223.630 158.000,222.778 159.026 C 220.930 161.253,216.275 161.410,213.708 159.332 C 204.614 151.972,212.954 133.102,222.507 139.424 C 223.344 139.977,224.202 140.323,224.414 140.191 C 225.101 139.767,224.895 129.913,224.177 128.889 L 223.555 128.000 227.144 128.000 C 229.641 128.000,230.795 128.152,230.935 128.500 C 231.056 128.799,231.150 128.718,231.168 128.300 C 231.197 127.674,230.736 127.600,226.800 127.600 C 224.380 127.600,222.400 127.709,222.400 127.842 M192.038 138.063 C 184.427 140.251,181.844 151.788,187.548 158.115 C 192.357 163.449,201.471 161.890,204.564 155.204 C 207.317 149.256,203.436 138.232,198.655 138.418 C 198.405 138.427,198.843 138.775,199.629 139.191 C 211.614 145.527,202.904 165.645,190.597 160.054 C 180.561 155.495,184.169 138.284,195.171 138.235 C 196.921 138.228,197.743 138.111,197.171 137.951 C 195.780 137.563,193.616 137.610,192.038 138.063 M244.815 138.046 C 241.486 139.058,237.587 143.581,237.613 146.400 C 237.616 146.730,238.055 145.940,238.587 144.645 C 243.166 133.508,258.000 137.295,258.000 149.600 C 258.000 162.536,241.718 165.463,237.974 153.200 C 237.769 152.529,237.657 152.435,237.634 152.913 C 237.370 158.404,246.416 163.083,252.209 160.452 C 264.187 155.010,257.333 134.240,244.815 138.046 M193.104 139.590 C 191.455 140.886,190.283 153.749,191.528 156.885 C 191.678 157.262,191.800 154.112,191.800 149.885 C 191.800 141.406,192.154 139.878,194.237 139.355 C 197.618 138.506,198.500 140.834,198.331 150.161 C 198.191 157.881,197.995 158.709,196.103 159.572 C 194.785 160.172,194.622 160.135,193.170 158.914 C 192.142 158.049,191.967 157.991,192.309 158.630 C 193.471 160.801,196.156 160.822,197.759 158.672 C 198.638 157.493,199.254 145.945,198.619 142.559 C 198.024 139.386,195.256 137.897,193.104 139.590 M245.904 139.590 C 242.611 142.180,243.304 158.552,246.767 159.986 C 249.690 161.197,251.321 159.057,251.446 153.849 L 251.533 150.200 251.236 153.800 C 250.707 160.200,247.005 162.260,244.935 157.305 C 244.031 155.142,244.314 142.730,245.309 140.906 C 247.255 137.337,251.090 139.645,251.260 144.487 C 251.306 145.793,251.361 145.924,251.493 145.037 C 252.142 140.666,248.745 137.355,245.904 139.590 M218.748 140.203 C 217.445 140.911,216.383 143.459,216.452 145.708 C 216.501 147.275,216.527 147.231,216.798 145.112 C 217.439 140.119,220.363 138.630,223.196 141.856 L 224.400 143.228 224.400 149.428 C 224.400 156.310,224.130 157.231,221.819 158.238 C 221.003 158.593,220.845 158.774,221.340 158.784 C 221.747 158.793,222.692 158.188,223.440 157.440 L 224.800 156.080 224.800 149.787 C 224.800 142.669,224.347 141.239,221.752 140.154 C 220.147 139.483,220.071 139.485,218.748 140.203 M237.328 149.600 C 237.328 151.030,237.401 151.615,237.489 150.900 C 237.578 150.185,237.578 149.015,237.489 148.300 C 237.401 147.585,237.328 148.170,237.328 149.600 M216.453 152.200 C 216.353 155.511,218.094 158.847,219.882 158.768 C 220.391 158.746,220.304 158.628,219.583 158.363 C 218.159 157.839,217.206 156.018,216.826 153.097 C 216.565 151.088,216.492 150.912,216.453 152.200 M231.254 156.684 C 231.225 157.171,231.588 157.931,232.063 158.373 C 233.019 159.264,232.981 159.297,230.200 159.984 C 228.604 160.379,228.605 160.379,230.551 160.158 C 233.854 159.782,234.315 159.360,232.629 158.256 C 232.095 157.906,231.580 157.210,231.484 156.710 L 231.309 155.800 231.254 156.684 " stroke="none" fill="#747474" fill-rule="evenodd"></path><path id="path4" d="M168.915 80.296 C 170.188 80.376,172.168 80.375,173.315 80.294 C 174.462 80.214,173.420 80.149,171.000 80.150 C 168.580 80.151,167.642 80.216,168.915 80.296 M198.300 80.295 C 199.455 80.376,201.345 80.376,202.500 80.295 C 203.655 80.214,202.710 80.148,200.400 80.148 C 198.090 80.148,197.145 80.214,198.300 80.295 M203.779 97.000 C 203.779 104.260,203.833 107.286,203.899 103.725 C 203.965 100.164,203.966 94.224,203.899 90.525 C 203.833 86.826,203.779 89.740,203.779 97.000 M195.777 98.200 C 195.777 104.580,195.832 107.134,195.899 103.876 C 195.967 100.617,195.966 95.397,195.899 92.276 C 195.831 89.154,195.776 91.820,195.777 98.200 M214.300 91.093 C 215.235 91.177,216.765 91.177,217.700 91.093 C 218.635 91.009,217.870 90.940,216.000 90.940 C 214.130 90.940,213.365 91.009,214.300 91.093 M220.493 109.200 C 220.493 109.970,220.575 110.285,220.676 109.900 C 220.776 109.515,220.776 108.885,220.676 108.500 C 220.575 108.115,220.493 108.430,220.493 109.200 M163.500 127.499 C 167.295 127.565,173.505 127.565,177.300 127.499 C 181.095 127.434,177.990 127.380,170.400 127.380 C 162.810 127.380,159.705 127.434,163.500 127.499 M225.312 127.495 C 226.364 127.577,227.984 127.576,228.912 127.492 C 229.840 127.408,228.980 127.341,227.000 127.342 C 225.020 127.343,224.260 127.412,225.312 127.495 M231.380 142.000 C 231.380 149.810,231.434 153.005,231.499 149.100 C 231.565 145.195,231.565 138.805,231.499 134.900 C 231.434 130.995,231.380 134.190,231.380 142.000 M251.324 148.200 C 251.326 149.520,251.401 150.012,251.490 149.293 C 251.579 148.574,251.577 147.494,251.486 146.893 C 251.395 146.292,251.322 146.880,251.324 148.200 M216.514 149.000 C 216.517 150.100,216.595 150.503,216.687 149.895 C 216.779 149.286,216.777 148.386,216.682 147.895 C 216.587 147.403,216.511 147.900,216.514 149.000 M209.301 149.800 C 209.305 150.680,209.387 150.993,209.483 150.495 C 209.579 149.998,209.575 149.278,209.475 148.895 C 209.375 148.513,209.296 148.920,209.301 149.800 M194.300 161.482 C 194.795 161.578,195.605 161.578,196.100 161.482 C 196.595 161.387,196.190 161.309,195.200 161.309 C 194.210 161.309,193.805 161.387,194.300 161.482 M217.700 161.476 C 218.085 161.576,218.715 161.576,219.100 161.476 C 219.485 161.375,219.170 161.293,218.400 161.293 C 217.630 161.293,217.315 161.375,217.700 161.476 M247.100 161.482 C 247.595 161.578,248.405 161.578,248.900 161.482 C 249.395 161.387,248.990 161.309,248.000 161.309 C 247.010 161.309,246.605 161.387,247.100 161.482 " stroke="none" fill="#7c7c7c" fill-rule="evenodd"></path><path id="path0" d="M176.726 3.008 C 176.588 3.146,174.253 3.427,171.537 3.633 C 162.383 4.329,151.028 5.874,142.600 7.571 C 139.908 8.114,137.026 8.678,134.559 9.146 C 133.436 9.359,131.366 9.808,129.959 10.144 C 128.551 10.479,125.863 11.118,123.985 11.563 C 120.665 12.350,117.692 13.643,108.600 18.254 C 91.879 26.734,83.227 35.069,76.424 49.252 C 75.091 52.031,74.000 54.560,74.000 54.872 C 74.000 55.185,73.851 55.611,73.670 55.820 C 73.368 56.167,73.043 57.153,71.895 61.200 C 71.676 61.970,71.341 63.013,71.149 63.519 C 70.957 64.024,70.800 64.843,70.800 65.339 C 70.800 65.834,70.638 66.411,70.441 66.620 C 70.244 66.829,69.983 67.720,69.861 68.600 C 69.740 69.480,69.449 71.190,69.216 72.400 C 67.938 79.009,67.886 80.884,67.737 124.920 L 67.586 169.641 65.993 171.656 C 64.156 173.980,64.029 175.015,65.200 178.096 C 66.155 180.608,66.215 182.424,65.397 184.006 C 64.744 185.268,64.492 185.260,62.047 183.904 C 59.689 182.597,34.521 170.000,34.267 170.000 C 34.133 170.000,33.073 169.566,31.912 169.036 C 28.440 167.453,25.253 166.350,20.600 165.126 C 14.167 163.432,6.322 164.506,2.100 167.658 L 0.000 169.226 0.004 178.513 C 0.009 190.813,1.447 193.849,10.352 200.349 C 14.193 203.153,30.130 209.600,33.221 209.600 C 33.624 209.600,34.064 209.780,34.200 210.000 C 34.336 210.220,34.889 210.400,35.429 210.400 C 35.969 210.400,36.723 210.562,37.105 210.761 C 37.487 210.960,38.610 211.340,39.600 211.607 C 40.590 211.873,41.760 212.230,42.200 212.400 C 42.640 212.570,44.440 213.166,46.200 213.725 C 52.335 215.671,55.216 216.942,63.200 221.228 C 63.970 221.641,68.290 222.889,72.800 224.000 C 77.310 225.111,81.553 226.196,82.228 226.410 C 82.904 226.625,83.928 226.800,84.505 226.800 C 85.081 226.800,85.664 226.980,85.800 227.200 C 85.936 227.420,86.746 227.600,87.600 227.600 C 88.454 227.600,89.264 227.780,89.400 228.000 C 89.536 228.220,90.321 228.400,91.144 228.400 C 91.967 228.400,92.811 228.562,93.020 228.759 C 93.229 228.956,94.120 229.217,95.000 229.339 C 96.503 229.546,98.221 229.866,103.000 230.829 C 117.945 233.839,138.811 236.702,155.200 237.991 C 170.696 239.209,176.707 239.400,199.600 239.400 C 227.242 239.400,238.776 238.853,262.600 236.410 C 269.460 235.707,283.134 234.004,288.200 233.222 C 289.520 233.018,292.040 232.648,293.800 232.400 C 297.466 231.883,299.795 231.510,308.700 230.014 C 312.721 229.338,318.785 228.234,322.000 227.592 C 323.210 227.351,325.010 227.056,326.000 226.938 C 326.990 226.819,327.971 226.560,328.180 226.361 C 328.389 226.163,329.109 226.000,329.780 226.000 C 330.451 226.000,332.260 225.725,333.800 225.388 C 336.929 224.705,339.830 224.157,343.400 223.576 C 349.019 222.661,356.283 220.969,364.200 218.731 C 381.029 213.975,392.997 206.797,398.245 198.314 L 399.800 195.800 399.923 187.895 C 400.019 181.783,399.928 179.871,399.523 179.467 C 397.309 177.258,392.556 174.472,389.800 173.766 C 387.014 173.054,375.145 173.567,374.220 174.441 C 374.011 174.638,373.347 174.800,372.744 174.800 C 372.141 174.800,371.536 174.980,371.400 175.200 C 371.264 175.420,370.749 175.600,370.256 175.600 C 369.763 175.600,369.189 175.743,368.980 175.918 C 368.771 176.093,367.880 176.470,367.000 176.756 C 366.120 177.042,364.320 177.699,363.000 178.217 C 360.744 179.102,357.562 180.512,344.888 186.245 C 343.727 186.770,342.621 187.200,342.430 187.200 C 341.943 187.200,338.904 180.865,337.649 177.235 L 336.600 174.200 336.345 126.400 C 336.179 95.278,335.937 77.483,335.651 75.400 C 334.961 70.378,334.508 67.938,333.274 62.600 C 329.921 48.090,319.175 33.435,306.800 26.498 C 306.030 26.066,304.590 25.241,303.600 24.664 C 297.669 21.208,291.772 18.823,283.200 16.413 C 282.210 16.135,280.950 15.769,280.400 15.600 C 279.850 15.431,278.590 15.071,277.600 14.800 C 276.610 14.529,275.350 14.160,274.800 13.979 C 273.889 13.681,271.844 13.183,261.600 10.767 C 259.730 10.326,257.549 9.793,256.754 9.583 C 255.958 9.372,254.779 9.200,254.134 9.200 C 253.488 9.200,252.789 9.038,252.580 8.841 C 252.371 8.644,251.480 8.381,250.600 8.257 C 249.720 8.133,247.965 7.844,246.700 7.616 C 245.435 7.387,243.365 7.014,242.100 6.786 C 235.179 5.542,227.997 4.585,218.000 3.576 C 213.356 3.108,177.125 2.608,176.726 3.008 M176.564 80.124 C 176.958 80.412,179.121 84.947,181.371 90.201 C 183.622 95.455,185.650 99.817,185.878 99.893 C 186.106 99.969,188.053 95.749,190.204 90.516 C 192.354 85.282,194.468 80.685,194.901 80.300 C 195.810 79.492,206.598 79.250,208.011 80.006 C 209.150 80.616,208.550 81.474,206.788 81.756 C 204.405 82.137,204.400 82.168,204.400 97.042 C 204.400 111.547,204.463 112.000,206.488 112.000 C 207.702 112.000,208.795 112.748,208.542 113.406 C 208.246 114.178,191.436 114.305,190.962 113.539 C 190.613 112.973,191.866 112.000,192.945 112.000 C 195.140 112.000,195.201 111.647,195.187 99.038 C 195.172 85.195,195.596 85.222,189.979 98.709 C 183.696 113.794,183.753 113.678,182.731 113.528 C 181.993 113.420,180.992 111.411,176.403 100.825 C 173.404 93.909,170.737 88.179,170.475 88.092 C 170.116 87.972,170.000 90.490,170.000 98.380 C 170.000 110.618,170.118 111.182,172.858 112.049 C 176.515 113.206,175.150 113.800,168.833 113.800 C 162.406 113.800,161.385 113.378,164.539 112.026 C 167.241 110.868,167.200 111.108,167.200 96.488 C 167.200 81.852,167.286 82.317,164.465 81.753 C 162.852 81.430,162.464 80.835,163.415 80.139 C 164.446 79.385,175.536 79.372,176.564 80.124 M230.218 90.982 C 233.328 94.092,229.865 98.681,225.944 96.647 C 222.311 94.762,221.090 97.210,221.282 105.995 L 221.400 111.391 222.500 111.917 C 223.143 112.225,223.600 112.767,223.600 113.222 C 223.600 113.959,223.276 114.000,217.424 114.000 C 210.655 114.000,209.841 113.729,211.835 112.140 L 213.000 111.212 213.122 102.604 L 213.244 93.995 211.922 92.776 C 209.956 90.961,210.932 90.400,216.054 90.400 C 220.214 90.400,221.200 90.885,221.200 92.930 C 221.200 93.569,221.421 93.489,222.669 92.393 C 225.576 89.841,228.526 89.289,230.218 90.982 M234.961 106.158 C 239.884 108.215,237.324 115.922,232.149 114.623 C 228.105 113.608,227.559 107.825,231.351 106.175 C 232.946 105.481,233.336 105.479,234.961 106.158 M185.200 127.600 C 186.019 128.419,186.362 133.610,185.748 135.900 C 185.305 137.552,184.161 136.967,183.198 134.595 C 182.056 131.781,180.612 130.559,178.005 130.201 C 174.647 129.739,174.800 129.089,174.800 143.823 C 174.800 159.107,174.695 158.613,178.100 159.370 C 178.852 159.538,179.200 159.869,179.200 160.415 C 179.200 161.550,161.901 161.470,161.682 160.334 C 161.557 159.680,161.822 159.537,164.114 159.026 C 165.880 158.632,166.000 157.661,166.000 143.823 C 166.000 129.205,166.110 129.713,163.033 130.174 C 160.359 130.575,158.745 131.866,157.729 134.415 C 157.116 135.954,156.613 136.638,156.029 136.728 C 154.852 136.909,154.730 127.914,155.900 127.232 C 157.414 126.350,184.288 126.688,185.200 127.600 M231.200 127.191 C 231.710 127.513,231.830 129.812,232.000 142.480 L 232.200 157.390 233.300 157.917 C 235.726 159.079,234.559 160.090,229.800 160.951 C 225.082 161.804,224.374 161.785,224.116 160.800 C 223.851 159.788,223.447 159.794,222.045 160.830 C 218.110 163.739,211.686 160.770,209.762 155.153 C 206.260 144.929,214.268 133.800,222.104 138.000 C 222.925 138.440,223.694 138.800,223.812 138.800 C 223.930 138.800,223.975 136.775,223.913 134.300 L 223.800 129.800 222.509 129.200 C 221.209 128.596,220.771 127.440,221.700 127.065 C 222.608 126.699,230.588 126.805,231.200 127.191 M198.440 137.663 C 203.936 139.537,207.146 145.679,205.983 152.095 C 203.322 166.767,184.000 164.556,184.000 149.579 C 184.000 140.825,190.932 135.104,198.440 137.663 M251.474 137.730 C 259.195 140.577,261.568 152.770,255.569 158.769 C 249.920 164.419,240.014 162.091,237.430 154.507 C 233.971 144.356,242.337 134.362,251.474 137.730 M192.924 141.300 C 191.868 143.273,191.867 156.123,192.923 157.737 C 194.255 159.773,196.340 159.661,197.249 157.505 C 198.148 155.375,198.024 142.508,197.091 141.083 C 196.010 139.433,193.864 139.545,192.924 141.300 M245.695 141.500 C 244.674 143.804,244.696 156.169,245.723 157.738 C 247.055 159.773,249.140 159.661,250.049 157.505 C 250.948 155.375,250.824 142.509,249.891 141.083 C 248.735 139.318,246.566 139.534,245.695 141.500 M218.702 141.500 C 216.634 143.826,216.642 153.982,218.713 156.769 C 219.840 158.286,221.245 158.294,222.748 156.791 L 224.000 155.538 224.000 149.529 L 224.000 143.520 222.640 142.160 C 221.129 140.649,219.675 140.405,218.702 141.500 M242.000 308.791 C 241.670 309.009,240.929 309.191,240.353 309.194 C 234.097 309.230,221.935 316.420,213.650 324.980 L 209.900 328.854 208.650 327.739 C 207.963 327.125,207.130 326.342,206.800 325.997 C 188.953 307.373,163.475 303.647,138.687 316.037 C 131.670 319.545,127.830 322.012,119.400 328.431 C 114.685 332.021,104.749 338.800,104.202 338.800 C 104.049 338.800,103.405 339.169,102.770 339.621 C 90.509 348.352,69.763 352.151,60.400 347.380 C 49.438 341.794,47.755 330.000,57.920 330.000 C 60.256 330.000,61.131 330.220,66.000 332.028 C 71.891 334.215,71.863 334.209,73.500 333.633 C 86.268 329.136,70.559 310.668,54.000 310.708 C 43.215 310.734,29.804 320.134,23.879 331.822 C 22.642 334.263,22.664 344.286,23.920 350.400 C 27.366 367.172,44.906 383.536,67.200 390.779 C 69.950 391.672,72.753 392.583,73.428 392.802 C 74.104 393.021,75.038 393.200,75.505 393.200 C 75.971 393.200,76.452 393.361,76.574 393.558 C 76.695 393.755,77.471 394.015,78.297 394.137 C 79.124 394.259,80.790 394.558,82.000 394.800 C 90.607 396.525,97.814 396.967,117.200 396.958 C 136.896 396.948,142.093 396.608,150.200 394.795 C 151.300 394.549,152.876 394.251,153.703 394.132 C 154.529 394.013,155.305 393.755,155.426 393.558 C 155.548 393.361,156.029 393.200,156.495 393.200 C 156.962 393.200,157.896 393.031,158.572 392.824 C 159.247 392.618,161.420 391.967,163.400 391.379 C 182.205 385.790,198.550 375.101,207.600 362.474 L 209.400 359.963 211.000 361.715 C 211.880 362.679,213.912 365.019,215.516 366.914 C 225.165 378.318,242.697 388.523,259.400 392.460 C 260.280 392.667,261.720 393.018,262.600 393.240 C 266.167 394.140,269.158 394.732,274.600 395.617 C 294.085 398.786,326.352 397.679,343.800 393.243 C 344.680 393.020,346.120 392.671,347.000 392.468 C 368.914 387.413,389.360 370.531,394.798 353.000 C 396.328 348.068,396.400 347.768,396.400 346.291 C 396.400 345.493,396.603 343.892,396.851 342.735 C 398.578 334.685,391.924 323.771,380.200 315.423 C 369.402 307.734,355.150 309.564,344.883 319.958 C 343.847 321.006,342.754 322.390,342.453 323.032 C 342.153 323.674,341.748 324.513,341.553 324.895 C 340.330 327.298,342.057 332.269,344.400 333.092 C 346.466 333.817,352.300 333.033,353.459 331.874 C 353.610 331.723,354.143 331.600,354.643 331.600 C 355.143 331.600,355.652 331.440,355.773 331.244 C 356.975 329.299,365.667 329.852,366.908 331.952 C 372.682 341.727,355.736 352.759,340.477 349.157 C 334.753 347.806,329.182 345.951,324.882 343.963 C 323.497 343.324,322.298 342.800,322.218 342.800 C 321.165 342.800,303.656 331.163,295.348 324.943 C 284.800 317.044,271.325 310.729,261.600 309.128 C 258.064 308.545,242.770 308.283,242.000 308.791 " stroke="none" fill="#fbfbfb" fill-rule="evenodd"></path><path id="path1" d="M167.171 81.854 C 167.973 82.873,168.000 83.355,168.000 96.480 C 168.000 110.127,167.888 111.324,166.542 112.120 C 165.373 112.810,166.116 113.200,168.600 113.200 C 171.474 113.200,171.606 113.083,170.300 111.694 C 169.154 110.474,168.843 85.000,169.974 85.000 C 170.345 85.000,172.629 89.779,176.442 98.534 C 182.468 112.373,182.627 112.706,183.038 112.295 C 183.267 112.067,188.881 98.946,192.664 89.800 C 196.044 81.630,196.200 81.990,196.200 97.938 C 196.200 109.357,196.130 110.743,195.500 111.704 C 195.115 112.291,194.800 112.868,194.800 112.986 C 194.800 113.104,197.050 113.200,199.800 113.200 C 205.036 113.200,205.232 113.140,204.100 111.890 C 203.461 111.184,203.400 109.882,203.400 97.000 C 203.400 84.118,203.461 82.816,204.100 82.110 C 205.228 80.864,205.031 80.800,200.046 80.800 L 195.292 80.800 192.206 88.300 C 190.509 92.425,188.581 97.105,187.923 98.699 C 185.894 103.614,186.058 103.789,180.597 90.900 L 176.317 80.800 171.329 80.800 L 166.342 80.800 167.171 81.854 M226.000 91.246 C 225.450 91.463,224.159 92.466,223.131 93.475 C 220.879 95.684,220.000 95.611,220.000 93.213 L 220.000 91.600 216.354 91.600 L 212.708 91.600 213.354 92.586 C 214.270 93.984,214.321 110.623,213.413 111.824 C 212.434 113.118,212.647 113.200,217.000 113.200 C 221.151 113.200,221.676 113.038,220.700 112.058 C 219.752 111.108,220.057 99.784,221.092 97.502 C 222.279 94.887,223.556 94.327,225.623 95.516 C 227.589 96.648,228.982 96.646,229.777 95.511 C 231.590 92.923,229.041 90.045,226.000 91.246 M230.581 107.858 C 229.264 109.279,229.265 111.301,230.582 112.618 C 232.481 114.517,235.986 113.590,236.631 111.018 C 237.485 107.615,232.985 105.264,230.581 107.858 M156.000 131.424 C 156.000 133.604,156.145 134.757,156.400 134.600 C 156.620 134.464,156.800 134.126,156.800 133.848 C 156.800 131.045,164.370 127.730,166.320 129.680 C 167.272 130.632,166.976 157.668,166.000 158.909 C 164.817 160.413,164.780 160.400,170.400 160.400 C 176.020 160.400,175.983 160.413,174.800 158.909 C 173.824 157.668,173.528 130.632,174.480 129.680 C 176.484 127.676,181.845 129.951,184.276 133.838 C 184.669 134.466,184.757 134.019,184.776 131.300 L 184.800 128.000 170.400 128.000 L 156.000 128.000 156.000 131.424 M224.177 128.889 C 224.895 129.913,225.101 139.767,224.414 140.191 C 224.202 140.323,223.344 139.977,222.507 139.424 C 212.954 133.102,204.614 151.972,213.708 159.332 C 216.275 161.410,220.930 161.253,222.778 159.026 C 223.486 158.173,224.798 158.220,224.806 159.100 C 224.821 160.787,225.294 160.915,228.847 160.194 C 232.963 159.359,233.061 159.302,232.030 158.342 C 231.220 157.588,231.200 157.225,231.200 143.417 C 231.200 126.417,231.617 128.000,227.135 128.000 L 223.555 128.000 224.177 128.889 M192.600 138.352 C 184.944 140.354,182.160 151.544,187.738 157.896 C 192.578 163.409,202.474 161.033,204.609 153.845 C 207.302 144.777,200.683 136.239,192.600 138.352 M245.400 138.352 C 240.395 139.661,237.349 144.424,237.695 150.400 C 238.541 165.015,258.000 164.249,258.000 149.600 C 258.000 142.030,251.959 136.637,245.400 138.352 M197.349 140.012 C 199.200 142.212,199.511 156.322,197.759 158.672 C 195.914 161.148,193.289 160.754,191.945 157.800 C 191.081 155.900,190.880 145.226,191.650 142.167 C 192.486 138.846,195.431 137.733,197.349 140.012 M250.149 140.012 C 251.909 142.104,252.309 156.053,250.679 158.537 C 248.986 161.118,246.095 160.773,244.758 157.830 C 243.882 155.901,243.672 145.256,244.450 142.167 C 245.286 138.846,248.231 137.733,250.149 140.012 M221.752 140.154 C 224.347 141.239,224.800 142.669,224.800 149.787 L 224.800 156.080 223.440 157.440 C 220.942 159.938,217.836 158.956,216.835 155.351 C 216.141 152.850,216.281 144.313,217.048 142.395 C 218.012 139.987,219.572 139.243,221.752 140.154 " stroke="none" fill="#0d0d0d" fill-rule="evenodd"></path><path id="path2" d="M163.415 80.139 C 162.464 80.835,162.852 81.430,164.465 81.753 C 167.286 82.317,167.200 81.852,167.200 96.488 C 167.200 111.108,167.241 110.868,164.539 112.026 C 161.385 113.378,162.406 113.800,168.833 113.800 C 175.150 113.800,176.515 113.206,172.858 112.049 C 170.118 111.182,170.000 110.618,170.000 98.380 C 170.000 90.490,170.116 87.972,170.475 88.092 C 170.737 88.179,173.404 93.909,176.403 100.825 C 180.992 111.411,181.993 113.420,182.731 113.528 C 183.753 113.678,183.696 113.794,189.979 98.709 C 195.596 85.222,195.172 85.195,195.187 99.038 C 195.201 111.647,195.140 112.000,192.945 112.000 C 191.866 112.000,190.613 112.973,190.962 113.539 C 191.436 114.305,208.246 114.178,208.542 113.406 C 208.795 112.748,207.702 112.000,206.488 112.000 C 204.463 112.000,204.400 111.547,204.400 97.042 C 204.400 82.168,204.405 82.137,206.788 81.756 C 208.550 81.474,209.150 80.616,208.011 80.006 C 206.598 79.250,195.810 79.492,194.901 80.300 C 194.468 80.685,192.354 85.282,190.204 90.516 C 188.053 95.749,186.106 99.969,185.878 99.893 C 185.650 99.817,183.622 95.455,181.371 90.201 C 179.121 84.947,176.958 80.412,176.564 80.124 C 175.536 79.372,164.446 79.385,163.415 80.139 M175.960 80.506 C 176.697 80.886,177.830 83.131,180.853 90.200 C 183.016 95.260,184.979 99.834,185.214 100.365 C 185.905 101.923,186.432 100.985,190.704 90.600 C 195.473 79.009,195.183 79.216,205.141 80.257 C 207.370 80.490,208.659 81.200,206.854 81.200 C 206.444 81.200,205.634 81.573,205.054 82.029 L 204.000 82.858 204.000 96.967 C 204.000 112.503,203.914 111.967,206.500 112.612 C 209.187 113.283,207.044 113.600,199.824 113.600 C 192.637 113.600,189.917 113.237,192.794 112.661 C 195.620 112.096,195.600 112.196,195.600 98.400 C 195.600 91.203,195.447 86.000,195.235 86.000 C 195.035 86.000,192.946 90.545,190.593 96.100 C 188.241 101.655,185.682 107.689,184.907 109.508 C 182.637 114.839,183.324 115.642,176.281 99.426 C 173.150 92.217,170.410 86.337,170.194 86.359 C 169.565 86.423,169.481 109.150,170.104 110.400 C 170.379 110.950,171.373 111.770,172.313 112.222 C 174.713 113.376,174.134 113.600,168.757 113.600 C 163.858 113.600,162.592 113.195,165.003 112.399 C 167.544 111.560,167.600 111.216,167.600 96.402 L 167.600 83.164 166.618 82.182 C 166.078 81.642,165.279 81.200,164.842 81.200 C 164.405 81.200,163.942 81.031,163.814 80.823 C 163.326 80.033,174.474 79.741,175.960 80.506 M225.369 90.567 C 224.692 90.862,223.477 91.684,222.669 92.393 C 221.421 93.489,221.200 93.569,221.200 92.930 C 221.200 90.885,220.214 90.400,216.054 90.400 C 210.932 90.400,209.956 90.961,211.922 92.776 L 213.244 93.995 213.122 102.604 L 213.000 111.212 211.835 112.140 C 209.841 113.729,210.655 114.000,217.424 114.000 C 223.276 114.000,223.600 113.959,223.600 113.222 C 223.600 112.767,223.143 112.225,222.500 111.917 L 221.400 111.391 221.282 105.995 C 221.090 97.210,222.311 94.762,225.944 96.647 C 228.911 98.186,231.200 96.813,231.200 93.493 C 231.200 90.549,228.510 89.200,225.369 90.567 M229.818 91.382 C 232.888 94.452,229.283 98.238,225.445 95.974 C 222.856 94.446,221.417 96.262,220.730 101.928 C 220.082 107.263,220.661 111.629,222.108 112.321 C 224.099 113.274,222.842 113.600,217.176 113.600 C 211.074 113.600,211.165 113.633,212.600 111.927 C 213.599 110.740,213.600 110.728,213.600 102.150 L 213.600 93.562 212.537 92.577 C 211.155 91.296,211.474 91.056,214.819 90.867 C 219.018 90.630,220.399 90.988,220.406 92.318 C 220.419 94.517,221.026 94.731,222.684 93.121 C 225.622 90.265,228.098 89.662,229.818 91.382 M231.351 106.175 C 227.559 107.825,228.105 113.608,232.149 114.623 C 237.324 115.922,239.884 108.215,234.961 106.158 C 233.336 105.479,232.946 105.481,231.351 106.175 M236.100 107.635 C 237.608 109.250,237.587 111.154,236.041 112.885 C 232.697 116.627,226.952 111.766,230.055 107.821 C 231.732 105.689,234.211 105.613,236.100 107.635 M155.900 127.232 C 154.730 127.914,154.852 136.909,156.029 136.728 C 156.613 136.638,157.116 135.954,157.729 134.415 C 158.745 131.866,160.359 130.575,163.033 130.174 C 166.110 129.713,166.000 129.205,166.000 143.823 C 166.000 157.661,165.880 158.632,164.114 159.026 C 161.822 159.537,161.557 159.680,161.682 160.334 C 161.901 161.470,179.200 161.550,179.200 160.415 C 179.200 159.869,178.852 159.538,178.100 159.370 C 174.695 158.613,174.800 159.107,174.800 143.823 C 174.800 129.089,174.647 129.739,178.005 130.201 C 180.612 130.559,182.056 131.781,183.198 134.595 C 184.841 138.642,185.985 137.458,185.995 131.700 C 186.003 126.450,187.104 126.798,170.500 126.812 C 161.805 126.820,156.338 126.977,155.900 127.232 M221.700 127.065 C 220.771 127.440,221.209 128.596,222.509 129.200 L 223.800 129.800 223.913 134.300 C 223.975 136.775,223.930 138.800,223.812 138.800 C 223.694 138.800,222.925 138.440,222.104 138.000 C 214.268 133.800,206.260 144.929,209.762 155.153 C 211.686 160.770,218.110 163.739,222.045 160.830 C 223.447 159.794,223.851 159.788,224.116 160.800 C 224.374 161.785,225.082 161.804,229.800 160.951 C 234.559 160.090,235.726 159.079,233.300 157.917 L 232.200 157.390 232.000 142.480 C 231.830 129.812,231.710 127.513,231.200 127.191 C 230.588 126.805,222.608 126.699,221.700 127.065 M184.300 127.452 C 185.160 127.683,185.200 127.878,185.200 131.847 C 185.200 136.592,184.873 136.949,183.392 133.821 C 182.163 131.222,180.376 129.957,177.552 129.686 C 174.251 129.369,174.400 128.701,174.400 143.830 C 174.400 158.716,174.435 158.939,176.866 159.667 C 179.800 160.546,178.352 160.800,170.400 160.800 C 162.933 160.800,160.604 160.458,163.595 159.801 C 166.370 159.192,166.400 159.024,166.400 143.995 C 166.400 128.613,166.562 129.327,163.165 129.730 C 159.813 130.127,158.184 131.556,156.821 135.300 C 156.008 137.529,155.600 136.435,155.600 132.029 C 155.600 128.203,155.687 127.636,156.300 127.476 C 157.363 127.198,183.270 127.176,184.300 127.452 M230.826 127.614 C 231.569 128.012,231.600 128.605,231.606 142.514 C 231.612 157.567,231.613 157.571,233.126 158.368 C 234.659 159.176,233.531 159.846,229.378 160.594 C 225.232 161.340,224.400 161.243,224.400 160.013 C 224.400 158.952,223.948 158.988,222.178 160.189 C 213.932 165.785,205.792 153.077,211.017 142.766 C 213.307 138.247,218.681 136.238,222.162 138.600 C 224.365 140.095,224.400 140.035,224.400 134.800 C 224.400 129.941,223.918 128.400,222.400 128.400 C 221.611 128.400,222.019 127.652,222.900 127.482 C 224.749 127.126,230.080 127.215,230.826 127.614 M191.141 137.756 C 186.730 139.332,184.000 143.852,184.000 149.579 C 184.000 164.556,203.322 166.767,205.983 152.095 C 207.723 142.501,199.661 134.713,191.141 137.756 M243.941 137.756 C 232.190 141.954,235.375 161.786,247.800 161.786 C 254.957 161.786,258.600 157.675,258.600 149.600 C 258.600 140.359,251.872 134.923,243.941 137.756 M198.615 138.267 C 208.363 141.588,207.949 158.160,198.045 161.058 C 190.734 163.198,184.400 157.879,184.400 149.600 C 184.400 140.993,191.052 135.690,198.615 138.267 M252.941 138.944 C 256.929 141.282,258.565 144.732,258.334 150.321 C 257.691 165.896,237.215 165.105,237.202 149.504 C 237.195 140.349,245.653 134.673,252.941 138.944 M193.418 140.100 C 191.351 141.913,190.764 155.754,192.648 158.277 C 193.841 159.875,196.161 159.872,197.357 158.271 C 199.366 155.582,198.403 140.677,196.154 139.652 C 194.799 139.035,194.595 139.068,193.418 140.100 M246.218 140.100 C 244.151 141.913,243.564 155.754,245.448 158.277 C 246.641 159.875,248.961 159.872,250.157 158.271 C 252.166 155.582,251.203 140.677,248.954 139.652 C 247.599 139.035,247.395 139.068,246.218 140.100 M197.091 141.083 C 198.024 142.508,198.148 155.375,197.249 157.505 C 196.340 159.661,194.255 159.773,192.923 157.737 C 191.867 156.123,191.868 143.273,192.924 141.300 C 193.864 139.545,196.010 139.433,197.091 141.083 M249.891 141.083 C 250.824 142.509,250.948 155.375,250.049 157.505 C 249.140 159.661,247.055 159.773,245.723 157.738 C 244.696 156.169,244.674 143.804,245.695 141.500 C 246.566 139.534,248.735 139.318,249.891 141.083 M218.195 141.351 C 216.032 144.652,216.306 155.066,218.624 157.626 C 219.726 158.844,221.467 158.613,223.040 157.040 L 224.400 155.680 224.400 149.820 C 224.400 143.562,224.094 142.271,222.313 141.024 C 220.937 140.060,218.937 140.219,218.195 141.351 M222.640 142.160 L 224.000 143.520 224.000 149.529 L 224.000 155.538 222.748 156.791 C 219.567 159.971,217.227 156.679,217.212 149.000 C 217.197 141.536,219.329 138.849,222.640 142.160 " stroke="none" fill="#9e9e9e" fill-rule="evenodd"></path><path id="path3" d="M164.593 80.789 C 164.733 81.015,165.073 81.200,165.348 81.200 C 167.511 81.200,167.600 81.809,167.600 96.562 C 167.600 111.706,167.565 111.920,164.990 112.567 C 162.825 113.110,164.631 113.600,168.800 113.600 C 173.426 113.600,174.424 113.259,172.175 112.445 C 169.657 111.535,169.575 111.047,169.694 97.708 C 169.762 90.024,169.942 85.835,170.200 85.897 C 170.420 85.951,173.210 92.026,176.400 99.397 C 180.375 108.581,182.392 112.799,182.809 112.799 C 183.229 112.800,185.117 108.754,188.922 99.700 C 194.881 85.521,195.000 85.267,195.478 85.744 C 195.655 85.921,195.902 91.316,196.026 97.733 L 196.252 109.400 196.226 97.319 C 196.193 82.055,196.020 81.689,192.664 89.800 C 188.881 98.946,183.267 112.067,183.038 112.295 C 182.627 112.706,182.468 112.373,176.442 98.534 C 172.629 89.779,170.345 85.000,169.974 85.000 C 168.843 85.000,169.154 110.474,170.300 111.694 C 171.606 113.083,171.474 113.200,168.600 113.200 C 166.116 113.200,165.373 112.810,166.542 112.120 C 167.888 111.324,168.000 110.127,168.000 96.480 C 168.000 83.355,167.973 82.873,167.171 81.854 L 166.342 80.800 171.329 80.800 L 176.317 80.800 180.597 90.900 C 186.058 103.789,185.894 103.614,187.923 98.699 C 188.581 97.105,190.509 92.425,192.206 88.300 L 195.292 80.800 200.046 80.800 C 204.709 80.800,205.404 81.001,204.200 82.000 C 203.870 82.274,203.618 82.881,203.640 83.349 C 203.675 84.097,203.712 84.079,203.949 83.200 C 204.117 82.577,204.818 81.899,205.809 81.400 L 207.400 80.600 201.618 80.489 C 198.439 80.427,195.633 80.455,195.383 80.551 C 195.134 80.647,193.083 85.197,190.826 90.663 C 188.569 96.128,186.559 100.771,186.361 100.980 C 185.730 101.645,185.272 100.774,180.882 90.562 L 176.600 80.600 170.470 80.489 C 166.353 80.415,164.423 80.514,164.593 80.789 M203.378 97.000 C 203.379 104.040,203.433 106.864,203.499 103.275 C 203.566 99.686,203.566 93.926,203.499 90.475 C 203.433 87.024,203.378 89.960,203.378 97.000 M225.291 91.230 C 224.351 91.704,223.048 92.740,222.396 93.531 C 221.059 95.154,220.527 94.965,220.329 92.800 L 220.200 91.400 216.100 91.286 C 211.883 91.169,211.422 91.353,212.800 92.600 C 213.555 93.283,213.600 93.832,213.600 102.262 C 213.600 110.667,213.552 111.248,212.800 112.000 C 211.360 113.440,211.795 113.600,217.133 113.600 C 222.830 113.600,223.321 113.445,221.710 112.162 C 220.634 111.304,220.592 111.125,220.349 106.339 L 220.098 101.400 220.149 106.480 C 220.184 109.951,220.358 111.719,220.700 112.060 C 221.678 113.037,221.150 113.200,217.000 113.200 C 212.647 113.200,212.434 113.118,213.413 111.824 C 214.321 110.623,214.270 93.984,213.354 92.586 L 212.708 91.600 216.354 91.600 L 220.000 91.600 220.000 93.213 C 220.000 95.631,220.845 95.652,223.336 93.295 C 226.547 90.259,229.524 90.165,230.255 93.077 C 230.935 95.785,228.545 97.099,225.733 95.563 C 223.023 94.083,220.343 96.437,220.453 100.200 C 220.480 101.150,220.561 101.025,220.840 99.601 C 221.547 95.989,223.325 94.603,225.588 95.900 C 228.577 97.613,231.141 96.259,230.650 93.228 C 230.223 90.601,228.104 89.811,225.291 91.230 M230.369 107.569 C 227.915 110.023,229.613 114.000,233.115 114.000 C 236.200 114.000,238.016 111.138,236.631 108.460 C 235.376 106.034,232.337 105.601,230.369 107.569 M235.493 107.586 C 237.965 109.889,236.492 113.600,233.106 113.600 C 229.957 113.600,228.445 110.163,230.581 107.858 C 231.813 106.529,234.215 106.396,235.493 107.586 M195.646 110.271 C 195.595 111.229,193.864 112.796,192.846 112.806 C 192.283 112.811,192.277 112.862,192.800 113.200 C 193.514 113.662,205.981 113.727,206.696 113.273 C 207.028 113.062,206.741 112.795,205.824 112.463 C 204.948 112.146,204.314 111.579,204.060 110.884 C 203.719 109.953,203.659 109.920,203.632 110.651 C 203.614 111.119,203.870 111.726,204.200 112.000 C 205.411 113.005,204.696 113.200,199.800 113.200 C 197.050 113.200,194.800 113.104,194.800 112.986 C 194.800 112.868,195.085 112.337,195.433 111.806 C 195.781 111.274,195.982 110.515,195.880 110.120 C 195.728 109.536,195.684 109.565,195.646 110.271 M155.872 127.862 C 155.446 128.287,155.550 136.000,155.981 136.000 C 156.191 136.000,156.738 135.152,157.197 134.115 C 158.219 131.803,159.040 130.850,160.600 130.161 C 161.313 129.846,161.522 129.625,161.114 129.616 C 160.139 129.593,157.809 131.752,157.026 133.402 C 156.086 135.382,156.000 135.214,156.000 131.400 L 156.000 128.000 170.400 128.000 L 184.800 128.000 184.776 131.300 C 184.757 134.019,184.669 134.466,184.276 133.838 C 181.845 129.951,176.484 127.676,174.480 129.680 C 173.528 130.632,173.824 157.668,174.800 158.909 C 175.983 160.413,176.020 160.400,170.400 160.400 C 164.780 160.400,164.817 160.413,166.000 158.909 C 166.765 157.937,166.800 157.286,166.800 144.026 C 166.800 128.477,166.939 129.165,163.820 129.265 L 161.800 129.330 164.000 129.565 L 166.200 129.800 166.305 143.762 C 166.420 158.947,166.375 159.290,164.198 159.836 C 163.652 159.973,163.305 160.246,163.426 160.443 C 163.726 160.927,176.845 160.888,177.600 160.400 C 178.083 160.088,178.021 160.011,177.282 160.006 C 176.777 160.003,175.920 159.556,175.377 159.013 L 174.390 158.026 174.495 143.913 L 174.600 129.800 177.271 129.800 C 180.578 129.800,181.711 130.525,183.400 133.724 C 185.044 136.840,185.245 136.626,185.114 131.900 L 185.000 127.800 170.572 127.695 C 162.636 127.637,156.021 127.712,155.872 127.862 M222.400 127.842 C 222.400 127.976,222.850 128.439,223.400 128.871 C 224.395 129.654,225.044 139.604,224.100 139.598 C 223.935 139.597,222.900 139.134,221.800 138.569 C 215.802 135.485,209.600 141.165,209.600 149.741 C 209.600 158.706,216.075 163.974,222.149 159.951 C 223.186 159.264,224.081 158.769,224.136 158.851 C 224.192 158.933,224.451 159.495,224.710 160.100 C 224.989 160.749,225.474 161.181,225.891 161.154 C 226.561 161.110,226.561 161.097,225.883 160.921 C 225.483 160.817,225.064 160.220,224.933 159.567 C 224.672 158.261,223.630 158.000,222.778 159.026 C 220.930 161.253,216.275 161.410,213.708 159.332 C 204.614 151.972,212.954 133.102,222.507 139.424 C 223.344 139.977,224.202 140.323,224.414 140.191 C 225.101 139.767,224.895 129.913,224.177 128.889 L 223.555 128.000 227.144 128.000 C 229.641 128.000,230.795 128.152,230.935 128.500 C 231.056 128.799,231.150 128.718,231.168 128.300 C 231.197 127.674,230.736 127.600,226.800 127.600 C 224.380 127.600,222.400 127.709,222.400 127.842 M192.038 138.063 C 184.427 140.251,181.844 151.788,187.548 158.115 C 192.357 163.449,201.471 161.890,204.564 155.204 C 207.317 149.256,203.436 138.232,198.655 138.418 C 198.405 138.427,198.843 138.775,199.629 139.191 C 211.614 145.527,202.904 165.645,190.597 160.054 C 180.561 155.495,184.169 138.284,195.171 138.235 C 196.921 138.228,197.743 138.111,197.171 137.951 C 195.780 137.563,193.616 137.610,192.038 138.063 M244.815 138.046 C 241.486 139.058,237.587 143.581,237.613 146.400 C 237.616 146.730,238.055 145.940,238.587 144.645 C 243.166 133.508,258.000 137.295,258.000 149.600 C 258.000 162.536,241.718 165.463,237.974 153.200 C 237.769 152.529,237.657 152.435,237.634 152.913 C 237.370 158.404,246.416 163.083,252.209 160.452 C 264.187 155.010,257.333 134.240,244.815 138.046 M193.104 139.590 C 191.455 140.886,190.283 153.749,191.528 156.885 C 191.678 157.262,191.800 154.112,191.800 149.885 C 191.800 141.406,192.154 139.878,194.237 139.355 C 197.618 138.506,198.500 140.834,198.331 150.161 C 198.191 157.881,197.995 158.709,196.103 159.572 C 194.785 160.172,194.622 160.135,193.170 158.914 C 192.142 158.049,191.967 157.991,192.309 158.630 C 193.471 160.801,196.156 160.822,197.759 158.672 C 198.638 157.493,199.254 145.945,198.619 142.559 C 198.024 139.386,195.256 137.897,193.104 139.590 M245.904 139.590 C 242.611 142.180,243.304 158.552,246.767 159.986 C 249.690 161.197,251.321 159.057,251.446 153.849 L 251.533 150.200 251.236 153.800 C 250.707 160.200,247.005 162.260,244.935 157.305 C 244.031 155.142,244.314 142.730,245.309 140.906 C 247.255 137.337,251.090 139.645,251.260 144.487 C 251.306 145.793,251.361 145.924,251.493 145.037 C 252.142 140.666,248.745 137.355,245.904 139.590 M218.748 140.203 C 217.445 140.911,216.383 143.459,216.452 145.708 C 216.501 147.275,216.527 147.231,216.798 145.112 C 217.439 140.119,220.363 138.630,223.196 141.856 L 224.400 143.228 224.400 149.428 C 224.400 156.310,224.130 157.231,221.819 158.238 C 221.003 158.593,220.845 158.774,221.340 158.784 C 221.747 158.793,222.692 158.188,223.440 157.440 L 224.800 156.080 224.800 149.787 C 224.800 142.669,224.347 141.239,221.752 140.154 C 220.147 139.483,220.071 139.485,218.748 140.203 M237.328 149.600 C 237.328 151.030,237.401 151.615,237.489 150.900 C 237.578 150.185,237.578 149.015,237.489 148.300 C 237.401 147.585,237.328 148.170,237.328 149.600 M216.453 152.200 C 216.353 155.511,218.094 158.847,219.882 158.768 C 220.391 158.746,220.304 158.628,219.583 158.363 C 218.159 157.839,217.206 156.018,216.826 153.097 C 216.565 151.088,216.492 150.912,216.453 152.200 M231.254 156.684 C 231.225 157.171,231.588 157.931,232.063 158.373 C 233.019 159.264,232.981 159.297,230.200 159.984 C 228.604 160.379,228.605 160.379,230.551 160.158 C 233.854 159.782,234.315 159.360,232.629 158.256 C 232.095 157.906,231.580 157.210,231.484 156.710 L 231.309 155.800 231.254 156.684 " stroke="none" fill="#747474" fill-rule="evenodd"></path><path id="path4" d="M168.915 80.296 C 170.188 80.376,172.168 80.375,173.315 80.294 C 174.462 80.214,173.420 80.149,171.000 80.150 C 168.580 80.151,167.642 80.216,168.915 80.296 M198.300 80.295 C 199.455 80.376,201.345 80.376,202.500 80.295 C 203.655 80.214,202.710 80.148,200.400 80.148 C 198.090 80.148,197.145 80.214,198.300 80.295 M203.779 97.000 C 203.779 104.260,203.833 107.286,203.899 103.725 C 203.965 100.164,203.966 94.224,203.899 90.525 C 203.833 86.826,203.779 89.740,203.779 97.000 M195.777 98.200 C 195.777 104.580,195.832 107.134,195.899 103.876 C 195.967 100.617,195.966 95.397,195.899 92.276 C 195.831 89.154,195.776 91.820,195.777 98.200 M214.300 91.093 C 215.235 91.177,216.765 91.177,217.700 91.093 C 218.635 91.009,217.870 90.940,216.000 90.940 C 214.130 90.940,213.365 91.009,214.300 91.093 M220.493 109.200 C 220.493 109.970,220.575 110.285,220.676 109.900 C 220.776 109.515,220.776 108.885,220.676 108.500 C 220.575 108.115,220.493 108.430,220.493 109.200 M163.500 127.499 C 167.295 127.565,173.505 127.565,177.300 127.499 C 181.095 127.434,177.990 127.380,170.400 127.380 C 162.810 127.380,159.705 127.434,163.500 127.499 M225.312 127.495 C 226.364 127.577,227.984 127.576,228.912 127.492 C 229.840 127.408,228.980 127.341,227.000 127.342 C 225.020 127.343,224.260 127.412,225.312 127.495 M231.380 142.000 C 231.380 149.810,231.434 153.005,231.499 149.100 C 231.565 145.195,231.565 138.805,231.499 134.900 C 231.434 130.995,231.380 134.190,231.380 142.000 M251.324 148.200 C 251.326 149.520,251.401 150.012,251.490 149.293 C 251.579 148.574,251.577 147.494,251.486 146.893 C 251.395 146.292,251.322 146.880,251.324 148.200 M216.514 149.000 C 216.517 150.100,216.595 150.503,216.687 149.895 C 216.779 149.286,216.777 148.386,216.682 147.895 C 216.587 147.403,216.511 147.900,216.514 149.000 M209.301 149.800 C 209.305 150.680,209.387 150.993,209.483 150.495 C 209.579 149.998,209.575 149.278,209.475 148.895 C 209.375 148.513,209.296 148.920,209.301 149.800 M194.300 161.482 C 194.795 161.578,195.605 161.578,196.100 161.482 C 196.595 161.387,196.190 161.309,195.200 161.309 C 194.210 161.309,193.805 161.387,194.300 161.482 M217.700 161.476 C 218.085 161.576,218.715 161.576,219.100 161.476 C 219.485 161.375,219.170 161.293,218.400 161.293 C 217.630 161.293,217.315 161.375,217.700 161.476 M247.100 161.482 C 247.595 161.578,248.405 161.578,248.900 161.482 C 249.395 161.387,248.990 161.309,248.000 161.309 C 247.010 161.309,246.605 161.387,247.100 161.482 " stroke="none" fill="#7c7c7c" fill-rule="evenodd"></path></g></svg>